<?xml version="1.0" encoding="UTF-8"?>
<!DOCTYPE svg PUBLIC "-//W3C//DTD SVG 1.1//EN" "http://www.w3.org/Graphics/SVG/1.1/DTD/svg11.dtd">
<!-- Creator: CorelDRAW X7 -->
<svg xmlns="http://www.w3.org/2000/svg" xml:space="preserve" width="90.9052mm" height="20.8546mm" version="1.1" style="shape-rendering:geometricPrecision; text-rendering:geometricPrecision; image-rendering:optimizeQuality; fill-rule:evenodd; clip-rule:evenodd"
viewBox="0 0 9091 2085"
 xmlns:xlink="http://www.w3.org/1999/xlink">
 <defs>
  <style type="text/css">
   <![CDATA[
    .fil3 {fill:#FEFEFE;fill-rule:nonzero}
    .fil4 {fill:#96989A;fill-rule:nonzero}
    .fil1 {fill:#0875AC;fill-rule:nonzero}
    .fil2 {fill:#0068A5;fill-rule:nonzero}
    .fil0 {fill:#0094CD;fill-rule:nonzero}
   ]]>
  </style>
 </defs>
 <g id="Capa_x0020_1">
  <metadata id="CorelCorpID_0Corel-Layer"/>
  <g id="_925158197712">
   <path class="fil0" d="M1686 295c156,-12 295,94 328,243 2,-1 5,-1 8,-1 26,-2 49,17 51,44 2,26 -18,48 -44,50 -3,1 -6,1 -9,0 -11,151 -132,276 -288,287 -156,12 -294,-93 -328,-241 -1,1 -2,1 -4,1 -26,2 -48,-18 -50,-44 -2,-26 17,-49 44,-51 1,0 2,0 3,0 9,-122 88,-226 200,-269 -17,-21 -30,-37 -68,-54l6 -14c44,20 58,37 77,63 5,-1 9,-3 14,-4 -8,-24 -22,-57 -42,-88l12 -9c19,29 32,59 41,83 15,-21 38,-47 67,-71l9 11c-27,23 -49,49 -64,68 12,-2 24,-3 37,-4z"/>
   <polygon class="fil1" points="794,1403 962,1403 1080,1305 1080,1236 818,1236 "/>
   <path class="fil2" d="M373 2052c226,0 320,-97 320,-277 0,-160 -69,-212 -292,-274 -37,-11 -72,-19 -72,-56 0,-38 28,-54 80,-54 11,0 24,1 34,2l27 84 200 0 0 -241 -158 0c-39,-8 -79,-14 -161,-14 -171,0 -309,71 -309,270 0,194 128,233 248,263 71,18 99,30 99,65 0,40 -34,52 -75,52 -16,0 -30,-1 -43,-3l-26 -90 -203 0 0 259 190 0c46,9 85,14 141,14zm335 -14l396 0 0 -166 -22 0c-11,0 -28,-17 -28,-28l0 -357c0,-33 -16,-56 -40,-56l-308 0 0 177 25 0c10,0 27,18 27,28l0 208c0,11 -17,28 -27,28l-23 0 0 166zm1901 -1461c-238,-224 -559,-361 -912,-361 -359,0 -686,142 -925,374l-90 -69c244,-306 620,-503 1042,-503 396,0 751,173 995,447l-110 112zm-2155 -165c308,355 710,556 1193,565 484,8 997,-194 1346,-681l94 22c-629,1260 -2190,1115 -2777,238l144 -144z"/>
   <path class="fil0" d="M2348 1743c0,-217 -99,-316 -317,-316 -214,0 -342,121 -342,314 0,193 90,311 349,311 139,0 226,-23 283,-53l0 -166 -151 0c-18,24 -52,46 -107,46 -55,0 -75,-24 -81,-81l362 0c1,-10 4,-23 4,-55zm-360 -66c5,-63 18,-87 50,-87 32,0 44,26 49,87l-99 0z"/>
   <path class="fil0" d="M3737 1743c0,-217 -99,-316 -316,-316 -215,0 -343,121 -343,314 0,193 90,311 349,311 139,0 226,-23 284,-53l0 -166 -152 0c-18,24 -51,46 -106,46 -55,0 -76,-24 -82,-81l363 0c1,-10 3,-23 3,-55zm-367 -66c5,-63 19,-87 51,-87 30,0 43,26 48,87l-99 0zm-785 359l315 0 220 -595c6,-17 29,-35 44,-35l8 0 0 -172 -374 0 0 172 13 0c58,0 65,32 47,92l-73 234 -4 0 -97 -326 67 0 0 -172 -427 0 0 172 14 0c10,0 26,12 31,23l216 607zm-1147 15c170,0 241,-74 241,-210 0,-120 -52,-160 -221,-207 -27,-7 -54,-13 -54,-42 0,-29 22,-41 60,-41 9,0 19,1 27,2l19 63 152 0 0 -182 -119 0c-30,-6 -60,-10 -122,-10 -130,0 -234,54 -234,203 0,148 97,177 188,200 53,14 75,22 75,49 0,30 -26,39 -57,39 -13,0 -23,-1 -32,-2l-20 -68 -154 0 0 196 144 0c35,7 64,10 107,10z"/>
   <path class="fil3" d="M1789 471c27,-2 51,24 54,57 2,34 -18,63 -45,65 -28,2 -52,-24 -55,-57 -2,-34 18,-63 46,-65zm2 28c-15,1 -26,17 -25,35 1,18 15,32 30,31 15,-1 26,-17 24,-35 -1,-18 -14,-33 -29,-31zm-184 -15c28,-2 52,24 55,58 2,33 -18,62 -46,64 -27,2 -51,-23 -54,-57 -2,-34 18,-63 45,-65zm2 28c-15,1 -26,17 -24,35 1,19 14,33 29,32 15,-1 27,-17 25,-36 -1,-18 -15,-32 -30,-31zm105 152c22,0 40,-12 40,-26 0,-15 -18,-26 -40,-26 -23,0 -41,11 -41,26 0,14 18,26 41,26zm138 19c3,74 -53,138 -127,143 -74,6 -139,-49 -146,-123 94,42 185,36 273,-20z"/>
   <polygon class="fil4" points="3947,2094 3914,2094 3914,184 3947,184 "/>
   <path class="fil4" d="M4463 1160l1 2c1,56 -13,98 -43,126 -29,28 -72,42 -127,42 -56,0 -101,-17 -134,-50 -33,-33 -49,-81 -49,-142l0 -155c0,-61 16,-108 48,-142 32,-33 75,-50 129,-50 58,0 102,14 132,42 31,28 46,70 45,126l-1 2 -98 0c0,-34 -6,-57 -18,-70 -12,-14 -32,-21 -60,-21 -25,0 -44,10 -57,28 -13,18 -19,46 -19,84l0 156c0,38 7,67 21,85 13,18 34,27 61,27 26,0 44,-6 55,-19 11,-14 16,-37 16,-71l98 0z"/>
   <path class="fil4" d="M4509 1124c0,-59 14,-106 42,-143 27,-37 67,-55 117,-55 51,0 90,18 118,55 29,37 43,84 43,143l0 8c0,59 -14,106 -43,143 -28,36 -67,55 -117,55 -51,0 -90,-19 -118,-55 -28,-37 -42,-84 -42,-143l0 -8zm101 8c0,36 4,65 13,86 9,22 24,32 46,32 21,0 35,-10 45,-32 9,-21 13,-50 13,-86l0 -8c0,-36 -4,-64 -13,-86 -10,-22 -25,-33 -46,-33 -21,0 -36,11 -45,33 -9,22 -13,50 -13,86l0 8z"/>
   <path class="fil4" d="M4976 933l5 54c11,-19 24,-34 40,-45 16,-11 34,-16 54,-16 33,0 59,13 77,38 19,26 29,67 29,122l0 236 -102 0 0 -236c0,-29 -3,-50 -10,-62 -7,-12 -18,-18 -33,-18 -11,0 -21,2 -30,8 -9,5 -17,12 -23,22l0 286 -101 0 0 -389 94 0z"/>
   <path class="fil4" d="M5365 836l0 97 53 0 0 72 -53 0 0 198c0,17 2,29 7,36 5,7 11,10 20,10 4,0 8,0 12,-1 3,0 6,-1 11,-3l8 75c-10,3 -19,6 -28,7 -8,2 -18,3 -29,3 -33,0 -59,-11 -76,-31 -18,-20 -27,-52 -27,-95l0 -199 -47 0 0 -72 47 0 0 -97 102 0z"/>
   <path class="fil4" d="M5656 1021l-35 -1c-11,0 -21,3 -28,9 -8,6 -14,14 -18,25l0 268 -101 0 0 -389 95 0 4 55c7,-20 17,-35 28,-46 12,-11 25,-16 41,-16 4,0 8,0 12,1 4,1 8,2 12,3l-10 91z"/>
   <path class="fil4" d="M5898 1322c-4,-9 -7,-18 -10,-28 -3,-10 -4,-20 -6,-31 -8,19 -20,35 -34,48 -14,12 -31,19 -51,19 -36,0 -63,-11 -82,-32 -19,-20 -29,-49 -29,-85 0,-38 13,-67 38,-88 25,-21 63,-32 112,-32l45 0 0 -32c0,-19 -4,-34 -11,-45 -7,-10 -18,-15 -32,-15 -13,0 -22,4 -29,12 -6,9 -9,21 -9,36l-98 0 -1 -2c-1,-34 11,-62 38,-86 27,-23 62,-35 105,-35 41,0 75,12 100,35 25,24 38,57 38,101l0 159c0,19 1,36 4,52 3,16 7,33 12,49l-100 0zm-75 -68c14,0 26,-4 36,-12 11,-8 18,-18 22,-30l0 -61 -45 0c-17,0 -29,5 -37,16 -8,11 -11,25 -11,42 0,14 3,24 9,33 7,8 15,12 26,12z"/>
   <polygon class="fil4" points="6316,1322 6215,1322 6215,761 6316,761 "/>
   <path class="fil4" d="M6583 1322c-4,-9 -7,-18 -9,-28 -3,-10 -5,-20 -6,-31 -9,19 -20,35 -34,48 -14,12 -31,19 -52,19 -35,0 -62,-11 -81,-32 -19,-20 -29,-49 -29,-85 0,-38 13,-67 38,-88 25,-21 62,-32 112,-32l44 0 0 -32c0,-19 -3,-34 -11,-45 -7,-10 -17,-15 -32,-15 -12,0 -21,4 -28,12 -6,9 -10,21 -10,36l-97 0 -1 -2c-2,-34 11,-62 38,-86 26,-23 61,-35 105,-35 41,0 74,12 100,35 25,24 38,57 38,101l0 159c0,19 1,36 4,52 2,16 6,33 12,49l-101 0zm-74 -68c13,0 25,-4 36,-12 10,-8 17,-18 21,-30l0 -61 -44 0c-17,0 -29,5 -37,16 -8,11 -12,25 -12,42 0,14 3,24 10,33 6,8 15,12 26,12z"/>
   <polygon class="fil4" points="4279,1906 4284,1928 4286,1928 4290,1907 4381,1517 4487,1517 4338,2040 4232,2040 4083,1517 4190,1517 "/>
   <path class="fil4" d="M4630 1557l-101 0 0 -78 101 0 0 78zm0 483l-101 0 0 -389 101 0 0 389z"/>
   <path class="fil4" d="M4690 1842c0,-58 14,-106 42,-143 28,-37 67,-55 118,-55 50,0 90,18 118,55 28,37 42,85 42,143l0 8c0,59 -14,106 -42,143 -28,36 -67,55 -117,55 -51,0 -91,-19 -119,-55 -28,-36 -42,-84 -42,-143l0 -8zm101 8c0,36 5,65 14,87 9,21 24,32 46,32 20,0 35,-11 44,-32 9,-22 14,-51 14,-87l0 -8c0,-36 -5,-64 -14,-86 -9,-22 -24,-33 -45,-33 -21,0 -36,11 -45,33 -9,22 -14,51 -14,86l0 8z"/>
   <polygon class="fil4" points="5171,2040 5070,2040 5070,1479 5171,1479 "/>
   <path class="fil4" d="M5393 2048c-52,0 -91,-18 -120,-54 -28,-35 -42,-81 -42,-137l0 -14c0,-59 14,-107 41,-144 27,-37 65,-55 115,-55 45,0 81,16 105,47 24,31 37,74 37,128l0 55 -197 0c2,29 9,52 20,69 11,17 29,26 53,26 20,0 37,-3 50,-7 14,-5 28,-13 44,-23l26 64c-14,12 -33,23 -56,32 -24,8 -49,13 -76,13zm-6 -325c-17,0 -30,8 -38,23 -9,15 -14,35 -16,61l96 0 0 -8c0,-24 -3,-43 -9,-56 -7,-13 -18,-20 -33,-20z"/>
   <path class="fil4" d="M5674 1651l4 54c11,-19 24,-34 40,-45 16,-11 34,-16 54,-16 33,0 59,13 78,39 18,25 28,66 28,121l0 236 -102 0 0 -236c0,-29 -3,-50 -10,-62 -7,-12 -18,-18 -32,-18 -12,0 -22,2 -31,8 -9,5 -16,12 -23,22l0 286 -101 0 0 -389 95 0z"/>
   <path class="fil4" d="M6086 1969c15,0 26,-6 33,-16 7,-11 11,-26 11,-46l92 0 1 2c1,40 -12,74 -38,100 -26,26 -59,39 -99,39 -51,0 -90,-19 -117,-55 -27,-37 -41,-84 -41,-142l0 -10c0,-58 14,-105 41,-142 27,-37 66,-55 117,-55 42,0 76,13 101,40 25,27 37,64 36,109l-1 2 -92 0c0,-21 -4,-39 -11,-52 -7,-13 -18,-20 -33,-20 -21,0 -36,11 -44,33 -8,21 -12,49 -12,85l0 10c0,36 4,65 12,86 8,21 23,32 44,32z"/>
   <path class="fil4" d="M6380 1557l-101 0 0 -78 101 0 0 78zm0 483l-101 0 0 -389 101 0 0 389z"/>
   <path class="fil4" d="M6647 2040c-4,-9 -7,-18 -9,-28 -3,-10 -5,-20 -6,-31 -9,20 -20,35 -34,48 -14,12 -31,19 -52,19 -35,0 -62,-11 -81,-31 -19,-21 -29,-50 -29,-86 0,-38 13,-67 38,-88 25,-21 62,-32 112,-32l44 0 0 -32c0,-19 -3,-34 -11,-45 -7,-10 -17,-15 -32,-15 -12,0 -21,4 -28,12 -6,9 -10,21 -10,36l-97 0 -1 -2c-2,-34 11,-62 38,-86 26,-23 61,-35 105,-35 41,0 74,12 100,35 25,24 38,57 38,101l0 159c0,19 1,36 4,52 2,16 6,33 12,49l-101 0zm-74 -67c13,0 25,-5 36,-13 10,-8 17,-18 21,-30l0 -61 -44 0c-17,0 -29,5 -37,16 -8,12 -12,25 -12,42 0,14 3,25 10,33 6,8 15,13 26,13z"/>
   <polygon class="fil4" points="7228,1809 7068,1809 7068,1961 7259,1961 7259,2040 6966,2040 6966,1517 7259,1517 7259,1596 7068,1596 7068,1730 7228,1730 "/>
   <path class="fil4" d="M7490 1939c0,-12 -4,-22 -13,-30 -9,-8 -26,-18 -51,-30 -40,-14 -70,-31 -90,-50 -20,-18 -29,-42 -29,-71 0,-31 12,-58 37,-81 26,-22 59,-33 101,-33 44,0 78,11 104,35 26,23 39,52 38,87l-1 2 -98 0c0,-16 -4,-29 -11,-39 -7,-10 -18,-15 -32,-15 -12,0 -22,4 -30,11 -8,8 -12,18 -12,29 0,11 4,20 12,27 8,7 25,17 52,30 40,14 71,30 91,50 20,19 30,43 30,74 0,33 -13,60 -40,81 -26,21 -61,32 -105,32 -45,0 -81,-13 -107,-39 -26,-26 -39,-55 -38,-88l1 -2 92 0c1,21 6,36 15,45 10,9 23,14 40,14 14,0 25,-4 33,-11 7,-7 11,-16 11,-28z"/>
   <path class="fil4" d="M7784 1969c14,0 25,-6 32,-16 8,-11 11,-26 11,-46l92 0 1 2c1,40 -12,74 -38,100 -26,26 -59,39 -98,39 -51,0 -90,-19 -117,-55 -28,-37 -41,-84 -41,-142l0 -10c0,-58 13,-105 41,-142 27,-37 66,-55 116,-55 42,0 76,13 101,40 25,27 37,64 36,109l0 2 -93 0c0,-21 -3,-39 -11,-52 -7,-13 -18,-20 -33,-20 -21,0 -35,11 -44,33 -8,21 -12,49 -12,85l0 10c0,36 4,65 12,86 9,21 23,32 45,32z"/>
   <path class="fil4" d="M7959 1842c0,-58 14,-106 42,-143 28,-37 67,-55 118,-55 50,0 89,18 118,55 28,37 42,85 42,143l0 8c0,59 -14,106 -42,143 -28,36 -68,55 -118,55 -50,0 -90,-19 -118,-55 -28,-36 -42,-84 -42,-143l0 -8zm101 8c0,36 5,65 14,87 9,21 24,32 45,32 21,0 36,-11 45,-32 9,-22 14,-51 14,-87l0 -8c0,-36 -5,-64 -14,-86 -9,-22 -24,-33 -45,-33 -21,0 -36,11 -45,33 -9,22 -14,51 -14,86l0 8z"/>
   <polygon class="fil4" points="8440,2040 8339,2040 8339,1479 8440,1479 "/>
   <path class="fil4" d="M8707 2040c-4,-9 -7,-18 -10,-28 -2,-10 -4,-20 -5,-31 -9,20 -20,35 -34,48 -14,12 -31,19 -52,19 -35,0 -63,-11 -82,-31 -19,-21 -28,-50 -28,-86 0,-38 12,-67 37,-88 25,-21 63,-32 113,-32l44 0 0 -32c0,-19 -4,-34 -11,-45 -7,-10 -18,-15 -32,-15 -12,0 -22,4 -28,12 -7,9 -10,21 -10,36l-98 0 0 -2c-2,-34 11,-62 37,-86 27,-23 62,-35 106,-35 41,0 74,12 99,35 26,24 38,57 38,101l0 159c0,19 2,36 4,52 3,16 7,33 13,49l-101 0zm-75 -67c14,0 26,-5 36,-13 11,-8 18,-18 22,-30l0 -61 -44 0c-17,0 -30,5 -37,16 -8,12 -12,25 -12,42 0,14 3,25 10,33 6,8 15,13 25,13z"/>
   <path class="fil4" d="M9038 1739l-35 -1c-11,0 -20,3 -28,9 -7,6 -13,14 -17,25l0 268 -101 0 0 -389 94 0 4 55c8,-20 17,-35 29,-46 12,-11 25,-16 40,-16 5,0 9,0 13,1 3,1 7,2 11,3l-10 91z"/>
  </g>
 </g>
</svg>
